<svg width="208" height="52" viewBox="0 0 208 52" fill="none" xmlns="http://www.w3.org/2000/svg">
<path d="M26 50C39.2548 50 50 39.2548 50 26C50 12.7452 39.2548 2 26 2C12.7452 2 2 12.7452 2 26C2 39.2548 12.7452 50 26 50Z" stroke="white" stroke-width="2.43161" stroke-miterlimit="10"/>
<mask id="path-2-inside-1_76_255" fill="white">
<path d="M26.031 47.7679C13.9899 47.787 4.24163 37.9863 4.2464 25.8737C4.25117 13.5942 14.1853 3.98898 26.0691 3.99374C38.2342 3.99851 47.9824 13.7039 47.9967 25.8641C48.0158 38.0626 38.3009 47.7489 26.031 47.7679ZM44.5694 26.7174C39.2448 26.7174 34.0775 26.7174 28.8005 26.7174C30.55 28.8196 32.4663 30.3116 35.2787 30.1496C36.0557 30.1067 36.8518 30.0733 37.6193 30.1925C40.7082 30.6549 42.696 28.9817 44.5694 26.7174ZM23.4426 26.7269C18.1704 26.7269 12.9936 26.7269 7.59274 26.7269C8.35068 27.4753 8.9513 28.0903 9.58053 28.6766C10.7579 29.7682 12.1689 30.2783 13.7611 30.2687C14.929 30.2592 16.0968 30.1305 17.2647 30.1496C19.9675 30.1972 21.7932 28.7386 23.4426 26.7269ZM25.2683 44.3405C25.2683 39.0064 25.2683 33.8296 25.2683 28.5765C23.0708 30.3688 21.6598 32.4329 21.8457 35.3216C21.8981 36.1558 21.8838 37.0043 21.8028 37.8385C21.5263 40.7177 23.1518 42.5625 25.2683 44.3405ZM26.9701 44.3215C28.9531 42.7055 30.4785 41.0037 30.4928 38.4201C30.4976 37.195 30.407 35.9699 30.4118 34.7496C30.4165 32.0849 28.9626 30.2449 26.9701 28.5527C26.9701 33.8296 26.9701 38.9921 26.9701 44.3215ZM25.3112 7.28765C24.4198 8.22673 23.5618 8.88456 23.0326 9.74736C22.4606 10.6864 21.9792 11.7924 21.8552 12.8697C21.6741 14.4332 21.8076 16.0396 21.8886 17.6222C22.0125 20.0438 23.4569 21.6741 25.3112 23.2185C25.3112 17.8987 25.3112 12.7505 25.3112 7.28765ZM26.9796 7.47357C26.9796 12.741 26.9796 17.913 26.9796 23.1709C29.1628 21.4596 30.5023 19.4193 30.4118 16.6307C30.3879 15.8823 30.3498 15.1244 30.4451 14.3855C30.8408 11.33 29.2439 9.29928 26.9796 7.47357ZM44.6742 25.0204C43.759 24.1624 43.044 23.414 42.2479 22.7562C41.2707 21.9506 40.1076 21.5263 38.8443 21.5263C37.2856 21.5215 35.7173 21.5454 34.1633 21.6693C31.8561 21.8552 30.2973 23.2853 28.8292 25.0156C34.1156 25.0204 39.2638 25.0204 44.6742 25.0204ZM7.73098 25.0156C13.0031 25.0156 18.1657 25.0156 23.3711 25.0156C21.8123 22.8515 20.039 21.8075 17.5698 21.6407C16.4639 21.5644 15.3437 21.6407 14.2378 21.5454C11.349 21.2927 9.48519 22.9039 7.73098 25.0156ZM43.4158 36.5038C43.7399 35.9175 44.045 35.4694 44.2357 34.9736C44.3119 34.7734 44.2261 34.3492 44.0736 34.2443C43.1774 33.658 42.267 33.0812 41.3088 32.6093C39.5594 31.7465 37.6479 31.8037 35.7649 31.7798C34.9546 31.7703 34.1394 31.7798 33.3291 31.7798C33.2766 31.8561 33.2242 31.9372 33.1718 32.0134C33.8153 32.5902 34.5494 33.0907 35.0881 33.7533C35.989 34.864 37.1044 35.2167 38.4773 35.1738C40.1886 35.1119 41.8856 35.2883 43.4158 36.5038ZM8.8512 15.2722C8.61762 15.6726 8.48415 15.9729 8.28394 16.2303C7.69285 16.9835 7.98839 17.4173 8.67959 17.9416C11.7924 20.2869 15.3913 19.9723 19.2096 20.039C18.2658 19.1381 17.4459 18.466 16.7737 17.6747C16.0778 16.8548 15.2293 16.6069 14.233 16.6307C12.3548 16.6689 10.5148 16.5163 8.8512 15.2722ZM20.3012 33.1575C20.2154 33.1146 20.1296 33.0717 20.0438 33.0288C19.2382 33.8677 18.3945 34.6781 17.6461 35.5647C17.3029 35.9699 16.9739 36.5229 16.9358 37.0282C16.769 39.1542 17.0454 41.3517 15.4914 43.1965C15.992 43.4539 16.359 43.5969 16.6736 43.8162C17.279 44.2357 17.7128 44.0641 18.0513 43.4873C18.5184 42.6912 19.0428 41.919 19.4098 41.08C20.5396 38.5297 20.2059 35.8174 20.3012 33.1575ZM32.1278 32.9954C32.1278 34.8306 32.0659 36.4752 32.1421 38.115C32.247 40.2792 33.1479 42.1573 34.4922 43.821C34.6209 43.9783 34.9784 44.1213 35.131 44.0545C35.6648 43.8209 36.1606 43.492 36.4323 43.3347C36.07 41.9142 35.6982 40.6701 35.4551 39.4021C35.3169 38.6775 35.4265 37.9053 35.3598 37.1616C35.3216 36.7564 35.2597 36.2702 35.0118 35.989C34.1108 34.9689 33.1289 34.0203 32.1278 32.9954ZM19.1762 31.837C17.3791 31.837 15.9205 31.8275 14.457 31.8418C12.6075 31.8609 10.8914 32.39 9.37555 33.4101C7.37823 34.7496 7.60705 34.2395 8.74156 36.2988C8.7654 36.3417 8.8369 36.3608 8.9656 36.4371C10.4481 35.2072 12.2786 35.1739 14.1234 35.1405C14.7669 35.131 15.5534 35.1214 16.0158 34.7734C17.1026 33.9488 18.0322 32.9239 19.1762 31.837ZM15.5296 8.56519C16.626 10 16.9501 11.5778 16.8262 13.2224C16.6927 14.9385 17.3172 16.2303 18.6471 17.2695C19.1858 17.689 19.6434 18.2133 20.2345 18.7854C20.6063 13.3321 19.6672 9.66632 17.3839 7.57367C16.8071 7.87875 16.2112 8.2029 15.5296 8.56519ZM33.0288 20.0295C37.2188 19.9961 41.2087 20.3155 44.3644 17.1551C44.0641 16.5545 43.7638 15.9538 43.4205 15.2674C41.7092 16.564 39.7977 16.6307 37.8624 16.645C37.3094 16.6498 36.623 16.6879 36.2369 17.0025C35.1548 17.8796 34.1966 18.9093 33.0288 20.0295ZM34.8545 7.5689C31.7512 10.7532 31.9801 14.6906 32.0945 18.6519C32.9525 17.9273 33.6866 17.1074 34.4922 16.3733C35.1214 15.8013 35.3693 15.1339 35.3788 14.314C35.4027 12.3358 35.3407 10.3385 36.7469 8.58901C36.051 8.21243 35.4551 7.88828 34.8545 7.5689ZM6.99212 18.7806C6.58693 20.6063 6.20082 22.3605 5.80994 24.1147C5.88621 24.1433 5.95771 24.1767 6.03398 24.2053C7.3544 22.9993 8.67959 21.7885 9.97141 20.6111C9.08477 20.0676 8.1457 19.4908 6.99212 18.7806ZM19.0332 45.046C20.878 45.4465 22.6084 45.8278 24.3388 46.2044C24.3626 46.1281 24.3912 46.0519 24.415 45.9708C23.2328 44.6838 22.0459 43.3919 20.8637 42.1049C20.3251 42.9772 19.7483 43.9068 19.0332 45.046ZM46.1615 24.1624C46.2521 24.129 46.3379 24.0956 46.4284 24.0623C46.0376 22.3224 45.6419 20.5825 45.2415 18.7949C44.126 19.4956 43.1965 20.0724 42.3289 20.6206C43.6064 21.8028 44.884 22.9802 46.1615 24.1624ZM24.4627 5.73842C22.4892 5.71935 20.8208 6.30568 19.1047 6.83004C19.7387 7.84538 20.3298 8.79398 20.878 9.67109C22.0316 8.40787 23.1852 7.13988 24.4627 5.73842ZM27.8424 45.947C27.871 46.0375 27.8996 46.1281 27.9234 46.2187C29.6681 45.8278 31.4176 45.4321 33.2385 45.0222C32.5235 43.902 31.9371 42.9867 31.4033 42.1478C30.1877 43.4444 29.0151 44.6933 27.8424 45.947ZM31.3937 9.69016C31.9419 8.80352 32.5282 7.85492 33.167 6.82051C31.4319 6.32952 29.7635 5.71935 27.809 5.76702C29.0913 7.17325 30.2449 8.43647 31.3937 9.69016ZM6.00061 27.5469C5.93864 27.5707 5.87667 27.5993 5.8147 27.6231C6.20558 29.3869 6.59647 31.1506 7.00165 32.9716C8.13617 32.2708 9.08954 31.6845 9.94758 31.1554C8.62716 29.9494 7.3115 28.7481 6.00061 27.5469ZM46.4284 27.6517C46.3617 27.6231 46.2902 27.5945 46.2235 27.5659C44.9555 28.7576 43.6875 29.9446 42.3861 31.1649C43.268 31.7179 44.1832 32.2947 45.2653 32.9716C45.6705 31.122 46.0519 29.3869 46.4284 27.6517ZM41.0895 39.6213C41.5567 39.035 42 38.4916 42.4672 37.9053C41.2087 36.8137 39.7882 36.7421 38.3486 36.766C39.2448 37.6955 40.1171 38.606 41.0895 39.6213ZM9.82364 37.9196C10.2956 38.525 10.715 39.0541 11.1584 39.6213C12.1213 38.6441 13.0222 37.7289 13.9708 36.7612C12.4788 36.7278 11.0916 36.847 9.82364 37.9196ZM14.1377 42.2574C15.1578 40.9561 15.3198 39.607 15.2436 38.2056C14.295 39.1161 13.3845 39.9884 12.4454 40.8893C12.9745 41.3183 13.5037 41.7474 14.1377 42.2574ZM38.1484 42.2526C38.7776 41.7235 39.3115 41.2754 39.6833 40.9656C38.7442 40.0218 37.8719 39.1399 37.0043 38.2676C36.9853 39.6166 37.0854 40.9847 38.1484 42.2526ZM11.1536 12.2023C10.6912 12.7743 10.2479 13.313 9.7712 13.9041C11.0726 14.8002 12.3739 15.1292 13.7849 14.9814C12.9126 14.0614 12.0688 13.17 11.1536 12.2023ZM41.223 12.3548C40.2553 13.2844 39.3735 14.1329 38.5154 14.9575C40.0265 15.1435 41.4709 14.7478 42.429 13.823C42 13.3035 41.571 12.7791 41.223 12.3548ZM15.2436 13.742C15.3055 12.0974 15.1435 10.7341 14.1138 9.50902C13.5132 10.0286 12.9841 10.4815 12.474 10.9248C13.3988 11.8639 14.2425 12.7219 15.2436 13.742ZM37.0329 13.5847C37.972 12.6504 38.8348 11.7971 39.7644 10.8771C39.2209 10.4481 38.668 10.0143 38.0864 9.55669C37.2188 10.8342 36.9185 12.1308 37.0329 13.5847Z"/>
</mask>
<path d="M26.031 47.7679C13.9899 47.787 4.24163 37.9863 4.2464 25.8737C4.25117 13.5942 14.1853 3.98898 26.0691 3.99374C38.2342 3.99851 47.9824 13.7039 47.9967 25.8641C48.0158 38.0626 38.3009 47.7489 26.031 47.7679ZM44.5694 26.7174C39.2448 26.7174 34.0775 26.7174 28.8005 26.7174C30.55 28.8196 32.4663 30.3116 35.2787 30.1496C36.0557 30.1067 36.8518 30.0733 37.6193 30.1925C40.7082 30.6549 42.696 28.9817 44.5694 26.7174ZM23.4426 26.7269C18.1704 26.7269 12.9936 26.7269 7.59274 26.7269C8.35068 27.4753 8.9513 28.0903 9.58053 28.6766C10.7579 29.7682 12.1689 30.2783 13.7611 30.2687C14.929 30.2592 16.0968 30.1305 17.2647 30.1496C19.9675 30.1972 21.7932 28.7386 23.4426 26.7269ZM25.2683 44.3405C25.2683 39.0064 25.2683 33.8296 25.2683 28.5765C23.0708 30.3688 21.6598 32.4329 21.8457 35.3216C21.8981 36.1558 21.8838 37.0043 21.8028 37.8385C21.5263 40.7177 23.1518 42.5625 25.2683 44.3405ZM26.9701 44.3215C28.9531 42.7055 30.4785 41.0037 30.4928 38.4201C30.4976 37.195 30.407 35.9699 30.4118 34.7496C30.4165 32.0849 28.9626 30.2449 26.9701 28.5527C26.9701 33.8296 26.9701 38.9921 26.9701 44.3215ZM25.3112 7.28765C24.4198 8.22673 23.5618 8.88456 23.0326 9.74736C22.4606 10.6864 21.9792 11.7924 21.8552 12.8697C21.6741 14.4332 21.8076 16.0396 21.8886 17.6222C22.0125 20.0438 23.4569 21.6741 25.3112 23.2185C25.3112 17.8987 25.3112 12.7505 25.3112 7.28765ZM26.9796 7.47357C26.9796 12.741 26.9796 17.913 26.9796 23.1709C29.1628 21.4596 30.5023 19.4193 30.4118 16.6307C30.3879 15.8823 30.3498 15.1244 30.4451 14.3855C30.8408 11.33 29.2439 9.29928 26.9796 7.47357ZM44.6742 25.0204C43.759 24.1624 43.044 23.414 42.2479 22.7562C41.2707 21.9506 40.1076 21.5263 38.8443 21.5263C37.2856 21.5215 35.7173 21.5454 34.1633 21.6693C31.8561 21.8552 30.2973 23.2853 28.8292 25.0156C34.1156 25.0204 39.2638 25.0204 44.6742 25.0204ZM7.73098 25.0156C13.0031 25.0156 18.1657 25.0156 23.3711 25.0156C21.8123 22.8515 20.039 21.8075 17.5698 21.6407C16.4639 21.5644 15.3437 21.6407 14.2378 21.5454C11.349 21.2927 9.48519 22.9039 7.73098 25.0156ZM43.4158 36.5038C43.7399 35.9175 44.045 35.4694 44.2357 34.9736C44.3119 34.7734 44.2261 34.3492 44.0736 34.2443C43.1774 33.658 42.267 33.0812 41.3088 32.6093C39.5594 31.7465 37.6479 31.8037 35.7649 31.7798C34.9546 31.7703 34.1394 31.7798 33.3291 31.7798C33.2766 31.8561 33.2242 31.9372 33.1718 32.0134C33.8153 32.5902 34.5494 33.0907 35.0881 33.7533C35.989 34.864 37.1044 35.2167 38.4773 35.1738C40.1886 35.1119 41.8856 35.2883 43.4158 36.5038ZM8.8512 15.2722C8.61762 15.6726 8.48415 15.9729 8.28394 16.2303C7.69285 16.9835 7.98839 17.4173 8.67959 17.9416C11.7924 20.2869 15.3913 19.9723 19.2096 20.039C18.2658 19.1381 17.4459 18.466 16.7737 17.6747C16.0778 16.8548 15.2293 16.6069 14.233 16.6307C12.3548 16.6689 10.5148 16.5163 8.8512 15.2722ZM20.3012 33.1575C20.2154 33.1146 20.1296 33.0717 20.0438 33.0288C19.2382 33.8677 18.3945 34.6781 17.6461 35.5647C17.3029 35.9699 16.9739 36.5229 16.9358 37.0282C16.769 39.1542 17.0454 41.3517 15.4914 43.1965C15.992 43.4539 16.359 43.5969 16.6736 43.8162C17.279 44.2357 17.7128 44.0641 18.0513 43.4873C18.5184 42.6912 19.0428 41.919 19.4098 41.08C20.5396 38.5297 20.2059 35.8174 20.3012 33.1575ZM32.1278 32.9954C32.1278 34.8306 32.0659 36.4752 32.1421 38.115C32.247 40.2792 33.1479 42.1573 34.4922 43.821C34.6209 43.9783 34.9784 44.1213 35.131 44.0545C35.6648 43.8209 36.1606 43.492 36.4323 43.3347C36.07 41.9142 35.6982 40.6701 35.4551 39.4021C35.3169 38.6775 35.4265 37.9053 35.3598 37.1616C35.3216 36.7564 35.2597 36.2702 35.0118 35.989C34.1108 34.9689 33.1289 34.0203 32.1278 32.9954ZM19.1762 31.837C17.3791 31.837 15.9205 31.8275 14.457 31.8418C12.6075 31.8609 10.8914 32.39 9.37555 33.4101C7.37823 34.7496 7.60705 34.2395 8.74156 36.2988C8.7654 36.3417 8.8369 36.3608 8.9656 36.4371C10.4481 35.2072 12.2786 35.1739 14.1234 35.1405C14.7669 35.131 15.5534 35.1214 16.0158 34.7734C17.1026 33.9488 18.0322 32.9239 19.1762 31.837ZM15.5296 8.56519C16.626 10 16.9501 11.5778 16.8262 13.2224C16.6927 14.9385 17.3172 16.2303 18.6471 17.2695C19.1858 17.689 19.6434 18.2133 20.2345 18.7854C20.6063 13.3321 19.6672 9.66632 17.3839 7.57367C16.8071 7.87875 16.2112 8.2029 15.5296 8.56519ZM33.0288 20.0295C37.2188 19.9961 41.2087 20.3155 44.3644 17.1551C44.0641 16.5545 43.7638 15.9538 43.4205 15.2674C41.7092 16.564 39.7977 16.6307 37.8624 16.645C37.3094 16.6498 36.623 16.6879 36.2369 17.0025C35.1548 17.8796 34.1966 18.9093 33.0288 20.0295ZM34.8545 7.5689C31.7512 10.7532 31.9801 14.6906 32.0945 18.6519C32.9525 17.9273 33.6866 17.1074 34.4922 16.3733C35.1214 15.8013 35.3693 15.1339 35.3788 14.314C35.4027 12.3358 35.3407 10.3385 36.7469 8.58901C36.051 8.21243 35.4551 7.88828 34.8545 7.5689ZM6.99212 18.7806C6.58693 20.6063 6.20082 22.3605 5.80994 24.1147C5.88621 24.1433 5.95771 24.1767 6.03398 24.2053C7.3544 22.9993 8.67959 21.7885 9.97141 20.6111C9.08477 20.0676 8.1457 19.4908 6.99212 18.7806ZM19.0332 45.046C20.878 45.4465 22.6084 45.8278 24.3388 46.2044C24.3626 46.1281 24.3912 46.0519 24.415 45.9708C23.2328 44.6838 22.0459 43.3919 20.8637 42.1049C20.3251 42.9772 19.7483 43.9068 19.0332 45.046ZM46.1615 24.1624C46.2521 24.129 46.3379 24.0956 46.4284 24.0623C46.0376 22.3224 45.6419 20.5825 45.2415 18.7949C44.126 19.4956 43.1965 20.0724 42.3289 20.6206C43.6064 21.8028 44.884 22.9802 46.1615 24.1624ZM24.4627 5.73842C22.4892 5.71935 20.8208 6.30568 19.1047 6.83004C19.7387 7.84538 20.3298 8.79398 20.878 9.67109C22.0316 8.40787 23.1852 7.13988 24.4627 5.73842ZM27.8424 45.947C27.871 46.0375 27.8996 46.1281 27.9234 46.2187C29.6681 45.8278 31.4176 45.4321 33.2385 45.0222C32.5235 43.902 31.9371 42.9867 31.4033 42.1478C30.1877 43.4444 29.0151 44.6933 27.8424 45.947ZM31.3937 9.69016C31.9419 8.80352 32.5282 7.85492 33.167 6.82051C31.4319 6.32952 29.7635 5.71935 27.809 5.76702C29.0913 7.17325 30.2449 8.43647 31.3937 9.69016ZM6.00061 27.5469C5.93864 27.5707 5.87667 27.5993 5.8147 27.6231C6.20558 29.3869 6.59647 31.1506 7.00165 32.9716C8.13617 32.2708 9.08954 31.6845 9.94758 31.1554C8.62716 29.9494 7.3115 28.7481 6.00061 27.5469ZM46.4284 27.6517C46.3617 27.6231 46.2902 27.5945 46.2235 27.5659C44.9555 28.7576 43.6875 29.9446 42.3861 31.1649C43.268 31.7179 44.1832 32.2947 45.2653 32.9716C45.6705 31.122 46.0519 29.3869 46.4284 27.6517ZM41.0895 39.6213C41.5567 39.035 42 38.4916 42.4672 37.9053C41.2087 36.8137 39.7882 36.7421 38.3486 36.766C39.2448 37.6955 40.1171 38.606 41.0895 39.6213ZM9.82364 37.9196C10.2956 38.525 10.715 39.0541 11.1584 39.6213C12.1213 38.6441 13.0222 37.7289 13.9708 36.7612C12.4788 36.7278 11.0916 36.847 9.82364 37.9196ZM14.1377 42.2574C15.1578 40.9561 15.3198 39.607 15.2436 38.2056C14.295 39.1161 13.3845 39.9884 12.4454 40.8893C12.9745 41.3183 13.5037 41.7474 14.1377 42.2574ZM38.1484 42.2526C38.7776 41.7235 39.3115 41.2754 39.6833 40.9656C38.7442 40.0218 37.8719 39.1399 37.0043 38.2676C36.9853 39.6166 37.0854 40.9847 38.1484 42.2526ZM11.1536 12.2023C10.6912 12.7743 10.2479 13.313 9.7712 13.9041C11.0726 14.8002 12.3739 15.1292 13.7849 14.9814C12.9126 14.0614 12.0688 13.17 11.1536 12.2023ZM41.223 12.3548C40.2553 13.2844 39.3735 14.1329 38.5154 14.9575C40.0265 15.1435 41.4709 14.7478 42.429 13.823C42 13.3035 41.571 12.7791 41.223 12.3548ZM15.2436 13.742C15.3055 12.0974 15.1435 10.7341 14.1138 9.50902C13.5132 10.0286 12.9841 10.4815 12.474 10.9248C13.3988 11.8639 14.2425 12.7219 15.2436 13.742ZM37.0329 13.5847C37.972 12.6504 38.8348 11.7971 39.7644 10.8771C39.2209 10.4481 38.668 10.0143 38.0864 9.55669C37.2188 10.8342 36.9185 12.1308 37.0329 13.5847Z" fill="white" stroke="white" stroke-width="0.972645" mask="url(#path-2-inside-1_76_255)"/>
<path d="M57.5903 22.3259L57.6049 17.9052C57.7897 18.0511 58.0086 18.1775 58.2517 18.2894C58.4997 18.4012 58.8013 18.4596 59.1612 18.4596C59.3654 18.4596 59.5891 18.4304 59.8274 18.3769C60.0657 18.3186 60.3429 18.2553 60.6687 18.1824C60.9946 18.1094 61.3739 18.0462 61.8116 17.9879C62.2493 17.9295 62.7794 17.9052 63.397 17.9052H66.3344C66.952 17.9052 67.4821 17.9344 67.9198 17.9879C68.3575 18.0462 68.7368 18.1094 69.0627 18.1824C69.3885 18.2553 69.6657 18.3186 69.904 18.3769C70.1423 18.4353 70.3611 18.4596 70.5703 18.4596C70.9301 18.4596 71.2365 18.4012 71.4894 18.2894C71.7423 18.1775 71.9612 18.0462 72.146 17.9052V22.3259C71.8979 21.7909 71.5964 21.29 71.2414 20.8183C70.8864 20.3514 70.4681 19.938 69.9916 19.5879C69.515 19.2377 68.9703 18.9605 68.3624 18.7611C67.7545 18.5617 67.0785 18.4596 66.3393 18.4596V32.6262C66.3393 33.0493 66.4657 33.3751 66.7186 33.6085C66.9715 33.842 67.2536 33.9927 67.5599 34.0657C67.5794 34.0657 67.5891 34.0705 67.5891 34.0803C67.5891 34.09 67.5794 34.0949 67.5599 34.0949H62.1812C62.1715 34.0949 62.1666 34.09 62.1666 34.0803C62.1666 34.0705 62.1715 34.0657 62.1812 34.0657C62.5022 33.9927 62.7842 33.842 63.0323 33.6085C63.2803 33.3751 63.4019 33.0493 63.4019 32.6262V18.4596C62.6627 18.4596 61.9867 18.5617 61.3836 18.7611C60.7806 18.9605 60.2408 19.2377 59.7593 19.5879C59.2779 19.938 58.8596 20.3465 58.4998 20.8183C58.1447 21.2851 57.8384 21.7909 57.5903 22.3259Z" fill="white"/>
<path d="M84.2749 22.3258C84.0269 21.7908 83.7253 21.2899 83.3703 20.8182C83.0153 20.3513 82.5971 19.9379 82.1205 19.5878C81.6439 19.2376 81.0992 18.9604 80.4913 18.761C79.8834 18.5616 79.2074 18.4595 78.4682 18.4595H77.2621V26.1871C77.6512 26.1871 78.0256 26.1677 78.3807 26.1337C78.7357 26.0996 79.0615 26.0218 79.3533 25.91C79.6451 25.7981 79.898 25.6327 80.1022 25.4139C80.3065 25.195 80.4572 24.9081 80.5496 24.5482V28.9203C80.4572 28.5507 80.3065 28.254 80.1022 28.04C79.898 27.8212 79.6451 27.6607 79.3533 27.544C79.0615 27.4321 78.7357 27.3592 78.3807 27.3251C78.0256 27.296 77.6512 27.2814 77.2621 27.2814V33.5403H78.4682C79.2123 33.5403 79.8834 33.4382 80.4913 33.2388C81.0992 33.0394 81.6439 32.7622 82.1205 32.4121C82.6019 32.0619 83.0153 31.6534 83.3703 31.1817C83.7253 30.7148 84.0269 30.209 84.2749 29.6741V34.0947C84.0804 33.9489 83.8566 33.8224 83.6086 33.7105C83.3606 33.5987 83.0591 33.5403 82.6992 33.5403C82.4949 33.5403 82.2712 33.5695 82.0329 33.623C81.7946 33.6814 81.5174 33.7446 81.1916 33.8175C80.8658 33.8905 80.4864 33.9537 80.0487 34.0121C79.611 34.0704 79.081 34.0947 78.4633 34.0947H73.0846C73.0749 34.0947 73.07 34.0899 73.07 34.0802C73.07 34.0704 73.0749 34.0656 73.0846 34.0656C73.4056 33.9926 73.6876 33.8419 73.9357 33.6084C74.1837 33.375 74.3053 33.0492 74.3053 32.6261V19.3835C74.3053 18.9604 74.1837 18.6297 73.9357 18.3963C73.6876 18.158 73.4056 18.0121 73.0846 17.9489C73.0554 17.9197 73.0554 17.9002 73.0846 17.9002H78.4633C79.081 17.9002 79.611 17.9294 80.0487 17.9829C80.4864 18.0412 80.8658 18.1045 81.1916 18.1774C81.5174 18.2504 81.7946 18.3136 82.0329 18.372C82.2712 18.4303 82.4901 18.4546 82.6992 18.4546C83.0591 18.4546 83.3655 18.3963 83.6086 18.2844C83.8566 18.1726 84.0755 18.0413 84.2749 17.9002V22.3258Z" fill="white"/>
<path d="M85.2183 34.0656C85.515 34.0023 85.8165 33.871 86.1132 33.6716C86.4098 33.4723 86.6335 33.195 86.7794 32.8449L86.8426 32.6261H86.8572L90.7527 19.3835H89.9502C89.9405 19.3835 89.9357 19.3786 89.9357 19.3689C89.9357 19.3592 89.9405 19.3543 89.9502 19.3543C90.0864 19.3446 90.2226 19.3251 90.3685 19.3008C90.5144 19.2765 90.6554 19.2473 90.8013 19.2182C90.9764 19.189 91.2244 19.1306 91.5502 19.0382C91.8761 18.9507 92.2116 18.8485 92.5569 18.727C92.9022 18.6102 93.2232 18.4789 93.515 18.333C93.8068 18.1871 94.0062 18.051 94.1083 17.9148C94.1278 17.8954 94.1375 17.8954 94.1375 17.9148L98.5387 32.84C98.6943 33.1902 98.918 33.4674 99.2098 33.6668C99.5016 33.8662 99.7983 33.9975 100.1 34.0607C100.119 34.0607 100.129 34.0656 100.129 34.0753C100.129 34.085 100.124 34.0899 100.114 34.0899H94.7551C94.7357 34.0899 94.7259 34.085 94.7259 34.0753C94.7259 34.0656 94.7308 34.0607 94.7405 34.0607C95.0372 33.9878 95.2755 33.837 95.4505 33.6036C95.6256 33.3701 95.6499 33.0443 95.5284 32.6212L94.6627 29.6692H89.5466L88.6809 32.6212L88.6031 32.84C88.5496 33.1902 88.6129 33.4674 88.7879 33.6668C88.963 33.8662 89.1867 33.9975 89.4542 34.0607C89.4639 34.0607 89.4688 34.0656 89.4688 34.0753C89.4688 34.085 89.4591 34.0899 89.4396 34.0899H85.2232C85.2037 34.0899 85.194 34.085 85.1989 34.0753C85.1989 34.0704 85.2086 34.0656 85.2183 34.0656ZM89.9794 28.2102H94.2299L92.1144 21.0078L89.9794 28.2102Z" fill="white"/>
<path d="M106.446 34.0996H101.068C101.058 34.0996 101.053 34.0948 101.053 34.085C101.053 34.0753 101.058 34.0704 101.068 34.0704C101.389 33.9975 101.671 33.8467 101.919 33.6133C102.167 33.3799 102.288 33.054 102.288 32.6309V19.3884C102.288 18.9653 102.167 18.6346 101.919 18.4011C101.671 18.1628 101.389 18.0169 101.068 17.9537C101.038 17.9245 101.038 17.9051 101.068 17.9051H106.446C106.485 17.9051 106.495 17.9197 106.461 17.9537C106.14 18.0169 105.858 18.1628 105.605 18.4011C105.352 18.6394 105.226 18.9701 105.226 19.3884V32.6309C105.226 33.054 105.352 33.3799 105.605 33.6133C105.858 33.8467 106.145 33.9975 106.461 34.0704C106.471 34.0704 106.475 34.0753 106.475 34.085C106.48 34.0948 106.471 34.0996 106.446 34.0996ZM114.359 34.0656C114.378 34.0656 114.393 34.0704 114.398 34.0802C114.402 34.0899 114.393 34.0947 114.373 34.0947H109.014C109.004 34.0947 108.995 34.0899 108.99 34.0802C108.985 34.0704 108.985 34.0656 108.999 34.0656C109.136 34.0364 109.252 33.9829 109.354 33.9051C109.457 33.8273 109.525 33.73 109.564 33.6133C109.598 33.4966 109.602 33.3555 109.573 33.1902C109.544 33.0248 109.461 32.84 109.325 32.6358L105.245 26.0218L109.51 19.3932C109.646 19.189 109.729 19.0042 109.763 18.8388C109.797 18.6735 109.797 18.5324 109.763 18.4157C109.729 18.299 109.661 18.1969 109.564 18.1239C109.466 18.0461 109.35 17.9926 109.218 17.9634C109.189 17.9343 109.194 17.9148 109.233 17.9148H113.143C113.162 17.9148 113.158 17.9294 113.128 17.9634C112.778 18.0267 112.399 18.1726 111.99 18.4109C111.582 18.6492 111.246 18.9799 110.979 19.3981L107.472 24.8498L112.418 32.8546C112.686 33.2048 112.997 33.482 113.352 33.6814C113.702 33.871 114.038 34.0072 114.359 34.0656Z" fill="white"/>
<path d="M119.178 22.3258L119.193 17.9051C119.378 18.051 119.596 18.1774 119.84 18.2893C120.088 18.4011 120.389 18.4595 120.749 18.4595C120.953 18.4595 121.177 18.4303 121.415 18.3768C121.654 18.3184 121.931 18.2552 122.257 18.1823C122.582 18.1093 122.962 18.0461 123.4 17.9878C123.837 17.9294 124.367 17.9051 124.985 17.9051H127.922C128.54 17.9051 129.07 17.9343 129.508 17.9878C129.945 18.0461 130.325 18.1093 130.651 18.1823C130.976 18.2552 131.254 18.3184 131.492 18.3768C131.73 18.4352 131.949 18.4595 132.158 18.4595C132.518 18.4595 132.824 18.4011 133.077 18.2893C133.33 18.1774 133.549 18.0461 133.734 17.9051V22.3258C133.486 21.7908 133.184 21.2899 132.829 20.8182C132.474 20.3513 132.056 19.9379 131.579 19.5878C131.103 19.2376 130.558 18.9604 129.95 18.761C129.342 18.5616 128.666 18.4595 127.927 18.4595V32.6261C127.927 33.0492 128.054 33.375 128.307 33.6084C128.559 33.8419 128.841 33.9926 129.148 34.0656C129.167 34.0656 129.177 34.0704 129.177 34.0802C129.177 34.0899 129.167 34.0947 129.148 34.0947H123.769C123.759 34.0947 123.755 34.0899 123.755 34.0802C123.755 34.0704 123.759 34.0656 123.769 34.0656C124.09 33.9926 124.372 33.8419 124.62 33.6084C124.868 33.375 124.99 33.0492 124.99 32.6261V18.4595C124.251 18.4595 123.575 18.5616 122.972 18.761C122.369 18.9604 121.829 19.2376 121.347 19.5878C120.866 19.9379 120.448 20.3464 120.088 20.8182C119.733 21.285 119.426 21.7908 119.178 22.3258Z" fill="white"/>
<path d="M134.677 17.9051H140.056C140.066 17.9051 140.075 17.9099 140.08 17.9197C140.085 17.9294 140.075 17.9391 140.056 17.9489C139.745 18.0121 139.468 18.158 139.215 18.3963C138.962 18.6346 138.835 18.9653 138.835 19.3835V25.6425H144.72V19.3835C144.72 18.9604 144.598 18.6297 144.35 18.3963C144.102 18.158 143.82 18.0121 143.499 17.9489C143.47 17.9197 143.475 17.9002 143.514 17.9002H148.892C148.922 17.9002 148.922 17.9148 148.892 17.9489C148.572 18.0121 148.289 18.158 148.041 18.3963C147.793 18.6346 147.672 18.9653 147.672 19.3835V32.6261C147.672 33.0492 147.793 33.375 148.041 33.6084C148.289 33.8419 148.572 33.9926 148.892 34.0656C148.902 34.0656 148.907 34.0704 148.907 34.0802C148.907 34.0899 148.902 34.0947 148.892 34.0947H143.514C143.494 34.0947 143.485 34.0899 143.485 34.0802C143.485 34.0704 143.489 34.0656 143.499 34.0656C143.82 33.9926 144.102 33.8419 144.35 33.6084C144.598 33.375 144.72 33.0492 144.72 32.6261V27.1112H138.835V32.6261C138.835 33.0492 138.962 33.375 139.215 33.6084C139.468 33.8419 139.75 33.9926 140.056 34.0656C140.075 34.0656 140.085 34.0704 140.08 34.0802C140.075 34.0899 140.066 34.0947 140.056 34.0947H134.677C134.668 34.0947 134.658 34.0899 134.653 34.0802C134.648 34.0704 134.658 34.0656 134.677 34.0656C134.989 33.9926 135.266 33.8419 135.519 33.6084C135.772 33.375 135.898 33.0492 135.898 32.6261V19.3835C135.898 18.9604 135.772 18.6297 135.519 18.3963C135.266 18.158 134.984 18.0121 134.677 17.9489C134.658 17.9391 134.648 17.9294 134.653 17.9197C134.658 17.9099 134.668 17.9051 134.677 17.9051Z" fill="white"/>
<path d="M161.036 22.3258C160.788 21.7908 160.486 21.2899 160.131 20.8182C159.776 20.3513 159.358 19.9379 158.882 19.5878C158.4 19.2376 157.86 18.9604 157.252 18.761C156.644 18.5616 155.968 18.4595 155.229 18.4595H154.023V26.1871C154.412 26.1871 154.787 26.1677 155.142 26.1337C155.497 26.0996 155.823 26.0218 156.114 25.91C156.406 25.7981 156.659 25.6327 156.863 25.4139C157.068 25.195 157.218 24.9081 157.311 24.5482V28.9203C157.218 28.5507 157.068 28.254 156.863 28.04C156.659 27.8212 156.406 27.6607 156.114 27.544C155.823 27.4321 155.497 27.3592 155.142 27.3251C154.787 27.296 154.412 27.2814 154.023 27.2814V33.5403H155.229C155.968 33.5403 156.644 33.4382 157.252 33.2388C157.86 33.0394 158.405 32.7622 158.882 32.4121C159.358 32.0619 159.776 31.6534 160.131 31.1817C160.486 30.7148 160.788 30.209 161.036 29.6741V34.0947C160.841 33.9489 160.618 33.8224 160.37 33.7105C160.122 33.5987 159.82 33.5403 159.46 33.5403C159.256 33.5403 159.032 33.5695 158.794 33.623C158.556 33.6814 158.279 33.7446 157.953 33.8175C157.627 33.8905 157.248 33.9537 156.81 34.0121C156.372 34.0704 155.842 34.0947 155.224 34.0947H149.846C149.836 34.0947 149.831 34.0899 149.831 34.0802C149.831 34.0704 149.836 34.0656 149.846 34.0656C150.167 33.9926 150.449 33.8419 150.697 33.6084C150.945 33.375 151.066 33.0492 151.066 32.6261V19.3835C151.066 18.9604 150.945 18.6297 150.697 18.3963C150.449 18.158 150.167 18.0121 149.846 17.9489C149.816 17.9197 149.816 17.9002 149.846 17.9002H155.224C155.842 17.9002 156.372 17.9294 156.81 17.9829C157.248 18.0412 157.627 18.1045 157.953 18.1774C158.279 18.2504 158.556 18.3136 158.794 18.372C159.032 18.4303 159.251 18.4546 159.46 18.4546C159.82 18.4546 160.127 18.3963 160.37 18.2844C160.618 18.1726 160.837 18.0413 161.036 17.9002V22.3258Z" fill="white"/>
<path d="M178.14 25.3653C178.252 26.6443 178.159 27.7969 177.853 28.8327C177.547 29.8686 177.094 30.7586 176.486 31.5075C175.879 32.2564 175.149 32.8449 174.298 33.2826C173.447 33.7203 172.528 33.9829 171.541 34.0656C171.419 34.085 171.293 34.0947 171.161 34.0947C171.035 34.0947 170.908 34.0947 170.782 34.0947H170.023C169.036 34.0947 168.083 33.9537 167.164 33.6716C166.244 33.3896 165.427 32.9519 164.698 32.3586C163.973 31.7653 163.37 31.0066 162.889 30.0777C162.407 29.1488 162.116 28.0498 161.999 26.7707C161.916 25.9148 161.941 25.1124 162.077 24.3586C162.213 23.6048 162.422 22.9142 162.719 22.2868C163.01 21.6595 163.38 21.0905 163.818 20.5847C164.255 20.0789 164.747 19.6461 165.286 19.2814C165.826 18.9166 166.405 18.62 167.023 18.4011C167.64 18.1774 168.272 18.0364 168.924 17.978L169.668 17.9002H170.427C171.404 17.9002 172.333 18.0461 173.213 18.3428C174.094 18.6346 174.882 19.0917 175.567 19.7045C176.258 20.3172 176.827 21.0905 177.284 22.0291C177.746 22.9677 178.028 24.0814 178.14 25.3653ZM170.738 33.5403C172.479 33.3945 173.719 32.6796 174.454 31.3908C175.188 30.102 175.446 28.1762 175.217 25.6133C175.105 24.3245 174.911 23.2303 174.643 22.3306C174.376 21.4309 174.021 20.6917 173.578 20.113C173.136 19.5343 172.596 19.116 171.964 18.8534C171.331 18.5908 170.587 18.4595 169.731 18.4595C167.99 18.6151 166.702 19.3543 165.86 20.6771C165.019 21.9999 164.713 23.9501 164.941 26.5276C165.145 28.9397 165.675 30.7148 166.527 31.8577C167.378 33.0005 168.574 33.5744 170.12 33.5744C170.223 33.5744 170.325 33.5695 170.422 33.5647C170.519 33.5598 170.626 33.5501 170.738 33.5403Z" fill="white"/>
<path d="M179.113 34.0996C179.103 34.0996 179.093 34.0948 179.088 34.085C179.083 34.0753 179.093 34.0704 179.113 34.0704C179.424 33.9975 179.701 33.8467 179.954 33.6133C180.207 33.3799 180.333 33.054 180.333 32.6309V19.3884C180.333 18.9653 180.207 18.6346 179.954 18.4011C179.701 18.1628 179.419 18.0169 179.113 17.9537C179.093 17.944 179.083 17.9343 179.088 17.9245C179.093 17.9148 179.103 17.9099 179.113 17.9099H186.218C186.865 17.9099 187.502 17.9926 188.119 18.1628C188.737 18.333 189.286 18.6054 189.773 18.9799C190.259 19.3543 190.648 19.8406 190.94 20.434C191.232 21.0273 191.382 21.7519 191.382 22.6029C191.382 23.4492 191.237 24.1689 190.94 24.7671C190.648 25.3653 190.259 25.8516 189.773 26.2261C189.286 26.6005 188.737 26.8729 188.119 27.0431C187.502 27.2133 186.869 27.296 186.218 27.296H184.564C185.809 27.296 186.894 27.4176 187.818 27.6607C188.742 27.9039 189.505 28.254 190.113 28.7112C190.721 29.1683 191.173 29.7276 191.475 30.389C191.772 31.0504 191.922 31.7944 191.922 32.6309C191.922 33.054 192.049 33.3799 192.302 33.6133C192.555 33.8467 192.837 33.9975 193.143 34.0704C193.153 34.0704 193.158 34.0753 193.158 34.085C193.158 34.0948 193.153 34.0996 193.143 34.0996H187.764C187.755 34.0996 187.745 34.0948 187.74 34.085C187.735 34.0753 187.745 34.0704 187.764 34.0704C188.075 33.9975 188.353 33.8467 188.606 33.6133C188.858 33.3799 188.985 33.054 188.985 32.6309C188.985 31.0941 188.615 29.8978 187.871 29.0321C187.127 28.1665 186.028 27.5878 184.564 27.3008H183.266V32.6309C183.266 33.054 183.392 33.3799 183.645 33.6133C183.898 33.8467 184.18 33.9975 184.486 34.0704C184.506 34.0704 184.516 34.0753 184.511 34.085C184.506 34.0948 184.496 34.0996 184.486 34.0996H179.113ZM183.271 26.7416C184.146 26.7416 184.905 26.6248 185.551 26.3865C186.193 26.1482 186.728 25.837 187.156 25.4528C187.584 25.0686 187.905 24.6261 188.114 24.13C188.324 23.634 188.43 23.1233 188.43 22.5981C188.43 22.0729 188.324 21.5622 188.114 21.0613C187.905 20.5604 187.584 20.1178 187.156 19.7337C186.728 19.3495 186.193 19.0382 185.551 18.8048C184.91 18.5713 184.146 18.4595 183.271 18.4595V26.7416Z" fill="white"/>
<path d="M192.078 17.9051H197.457C197.51 17.9051 197.52 17.9197 197.486 17.9537C197.209 18.0169 197.019 18.1628 196.912 18.4011C196.81 18.6394 196.888 18.9701 197.145 19.3884L200.452 24.7963L203.9 19.1549C204.066 18.8048 204.09 18.5276 203.978 18.3282C203.866 18.1288 203.686 18.0024 203.438 17.9489C203.409 17.9197 203.419 17.9002 203.468 17.9002H207.344C207.363 17.9002 207.358 17.9148 207.329 17.9489C206.998 18.0024 206.658 18.1288 206.303 18.3282C205.948 18.5276 205.641 18.8048 205.384 19.1549L201.196 25.9975V32.6261C201.196 33.0492 201.318 33.375 201.566 33.6084C201.814 33.8419 202.096 33.9926 202.417 34.0656C202.427 34.0656 202.432 34.0704 202.432 34.0802C202.432 34.0899 202.422 34.0947 202.403 34.0947H197.024C197.014 34.0947 197.009 34.0899 197.009 34.0802C197.009 34.0704 197.014 34.0656 197.024 34.0656C197.345 33.9926 197.627 33.8419 197.875 33.6084C198.123 33.375 198.244 33.0492 198.244 32.6261V25.9975L194.198 19.3835C193.941 18.9604 193.615 18.6297 193.226 18.3963C192.837 18.158 192.457 18.0121 192.097 17.9489C192.063 17.9197 192.058 17.9051 192.078 17.9051Z" fill="white"/>
</svg>
